<svg xmlns="http://www.w3.org/2000/svg" xml:space="preserve" width="512px" height="512px" version="1.1" style="shape-rendering:geometricPrecision; text-rendering:geometricPrecision; image-rendering:optimizeQuality; fill-rule:evenodd; clip-rule:evenodd" viewBox="0 0 512 512" xmlns:xlink="http://www.w3.org/1999/xlink">
 <defs>
  <style type="text/css">
   
    .fil0 {fill:red}
   
  </style>
 </defs>
 <g id="Layer_x0020_1">
  <metadata id="CorelCorpID_0Corel-Layer"></metadata>
  <g id="_346246120">
   <g>
    <g>
     <path class="fil0" d="M61 512c-4,0 -8,-1 -11,-3 -5,-3 -13,-10 -11,-29 0,0 0,-1 0,-1l40 -407 1 -14c0,-4 4,-7 8,-7 3,0 6,4 6,8l-1 14c0,0 0,0 0,0 0,0 0,0 0,0l-40 408c-1,8 1,14 4,16 3,2 10,1 20,-6l97 -69c2,-1 5,-1 7,0 3,1 4,4 4,6l0 33c0,9 7,16 16,16 8,0 15,-7 15,-16l0 -66c0,-2 1,-4 3,-6l189 -134 15 -11c3,-2 8,-1 10,2 2,3 1,7 -2,10l-15 11c0,0 0,0 0,0 0,0 0,0 0,0 0,0 0,0 0,0l-186 132 0 62c0,17 -13,30 -29,30 -17,0 -30,-13 -30,-30l0 -19 -86 61c0,0 0,0 0,0 -9,6 -17,9 -24,9z" id="id_128"></path>
    </g>
    <g>
     <path class="fil0" d="M434 280c-4,0 -8,-2 -12,-6 -2,-2 -2,-4 -2,-6 2,-12 0,-23 -7,-32 -23,-33 -88,-44 -89,-44 -3,0 -6,-3 -6,-6 -1,-21 -10,-37 -24,-49 -39,-30 -111,-18 -112,-18 -3,1 -6,-1 -7,-4 -11,-26 -26,-42 -45,-49 -28,-10 -55,4 -56,4 -1,1 -3,1 -5,1 -7,-2 -10,-6 -11,-9 -5,-12 3,-28 13,-45 2,-3 4,-5 5,-7 0,0 0,0 0,0 8,-15 35,-13 83,6 39,15 87,39 138,68 50,29 96,59 127,85 40,32 55,54 47,69 0,0 0,0 0,0 -1,1 -2,3 -3,5 -10,18 -20,35 -33,36 0,1 -1,1 -1,1zm-102 -101c17,4 70,17 92,49 9,11 12,24 11,38 1,-1 4,-3 9,-10 5,-6 9,-14 12,-19 1,-3 2,-5 3,-6 1,-2 0,-8 -7,-17 -8,-9 -20,-21 -36,-34 -32,-25 -76,-55 -126,-84 -50,-28 -98,-52 -136,-67 -20,-8 -36,-12 -48,-14 -11,-2 -16,0 -18,2 -1,2 -2,4 -4,8 -4,5 -8,12 -11,19 -4,9 -3,12 -2,12 0,0 0,0 0,1 9,-4 36,-14 64,-4 21,8 38,25 50,52 19,-3 80,-8 118,21 16,13 26,31 29,53z" id="id_129"></path>
    </g>
    <g>
     <path class="fil0" d="M273 367c-2,0 -4,-1 -5,-3 -17,-21 -19,-51 -5,-75 19,-33 61,-45 94,-26 1,0 1,0 1,0 8,5 16,13 22,21 2,3 1,8 -2,10 -3,2 -7,1 -10,-2 -5,-6 -11,-13 -18,-17 -26,-15 -60,-6 -75,21 0,0 0,0 0,0 -11,19 -10,43 4,60 2,3 1,7 -2,10 -1,1 -2,1 -4,1z" id="id_130"></path>
    </g>
    <g>
     <path class="fil0" d="M206 243c-8,0 -16,-2 -23,-6 -12,-6 -20,-16 -23,-29 -3,-12 -1,-25 5,-36 0,0 0,0 0,0 13,-23 43,-31 65,-18 0,0 0,0 0,0 11,7 19,17 22,29 4,12 2,25 -5,37 -9,15 -25,23 -41,23zm-29 -64c-9,17 -4,37 12,46 0,0 1,0 1,0 15,9 36,3 45,-12 0,0 0,0 0,0 10,-17 4,-37 -13,-47 -15,-9 -36,-3 -45,13z" id="id_131"></path>
    </g>
    <g>
     <path class="fil0" d="M69 304c-2,0 -4,0 -6,0 -4,0 -6,-4 -6,-8 1,-4 4,-6 8,-6 13,2 26,-5 33,-16 9,-16 3,-37 -12,-46 -1,0 -1,0 -1,0 -5,-3 -8,-4 -14,-5 -4,-1 -7,-4 -6,-8 1,-4 4,-6 8,-6 7,1 13,3 20,7 22,13 30,43 17,65 0,0 0,0 0,0 -9,15 -24,23 -41,23zm35 -27l0 0 0 0z" id="id_132"></path>
    </g>
    <g>
     <path class="fil0" d="M173 368c-8,0 -16,-3 -23,-7 -11,-6 -19,-16 -23,-28 -3,-12 -1,-25 5,-36 6,-12 16,-20 29,-23 12,-3 25,-2 37,5 22,13 30,43 17,65 0,0 0,0 0,0 -7,11 -17,19 -30,22 -4,1 -8,2 -12,2zm0 -82c-3,0 -6,1 -8,1 -9,3 -16,8 -21,16 0,0 0,1 0,1 -4,7 -6,17 -3,25 2,9 8,16 15,20 0,0 0,0 0,0 17,9 37,4 47,-12 9,-16 3,-37 -13,-46 0,0 0,0 0,0 -5,-3 -11,-5 -17,-5zm36 54l0 0 0 0z" id="id_133"></path>
    </g>
    <g>
     <path class="fil0" d="M120 169c-2,0 -4,-1 -5,-2 -3,-3 -3,-7 0,-10 21,-21 12,-41 12,-41 -2,-3 0,-7 3,-9 3,-2 8,0 9,3 1,1 14,29 -14,57 -1,1 -3,2 -5,2z" id="id_134"></path>
    </g>
    <g>
     <path class="fil0" d="M277 249c-2,0 -4,-1 -5,-2 -3,-3 -3,-7 0,-10 21,-21 12,-41 12,-41 -2,-3 0,-7 3,-9 3,-2 8,0 9,3 1,1 14,29 -14,57 -1,1 -3,2 -5,2z" id="id_135"></path>
    </g>
    <g>
     <path class="fil0" d="M106 435c-2,0 -4,-1 -5,-2 -3,-3 -3,-7 0,-10 21,-21 12,-39 12,-40 -2,-3 -1,-7 3,-9 3,-2 8,-1 9,3 1,1 14,28 -14,56 -1,1 -3,2 -5,2z" id="id_136"></path>
    </g>
   </g>
  </g>
 </g>
</svg>